<?xml version="1.0" encoding="UTF-8"?><svg id="eyedropper" xmlns="http://www.w3.org/2000/svg" viewBox="0 0 725.67 725.67"><defs><style>.cls-1{fill:#fff;}</style></defs><path class="cls-1" d="m670.42,169.01c29.91-29.93,33.31-77.93,7.71-109.28-15.25-18.69-37.88-29.43-62.07-29.43-21.41,0-41.49,8.29-56.56,23.35l-47.01,47.03c-14.92,14.92-40.92,14.92-55.83,0l-7.77-7.77c-11.19-11.16-30.65-11.16-41.79.01l-52.47,52.48c-6.19,6.19-9.28,14.63-8.55,23.44.59,7.13,3.94,13.75,8.99,18.81l25.7,25.7s.05.13,0,.18l-203.44,203.44-13.32,13.32c-20.83,20.83-36.36,46.68-45.27,75.84-3.44,11.27-8.31,22.07-14.21,32.24-.37.64-.64,1.32-1.01,1.95-.29.48-.67.92-.96,1.4-2.99,4.84-6.16,9.57-9.65,14.07-3.85,4.93-8,9.64-12.43,14.07l-43.93,43.93c-8.24,8.24-8.24,21.59,0,29.82l45.59,45.59c8.24,8.24,21.59,8.24,29.82,0l43.42-43.41c18.05-18.04,40.49-31.4,64.93-38.64,17.19-5.11,33.35-13.05,48.24-22.95,9.97-6.61,19.47-13.95,27.96-22.44l144.8-144.79,71.46-71.44s.13-.05.18,0l26.14,26.14c5.47,5.49,12.71,8.54,20.42,8.66,8.22.13,16.09-3.36,21.9-9.17l51.96-51.96c11.52-11.52,11.52-30.28,0-41.81l-7.75-7.75c-7.47-7.47-11.56-17.37-11.56-27.92s4.11-20.45,11.56-27.91l44.79-44.8Zm-176.5,157.65l-90.27,90.27s-.06.04-.09.04h-188.2c-.11,0-.17-.14-.09-.22l184.37-184.37s.13-.05.18,0l94.1,94.1s.05.13,0,.18Z"/></svg>