<?xml version="1.0" encoding="utf-8"?>
<!-- Generator: Adobe Illustrator 27.4.0, SVG Export Plug-In . SVG Version: 6.00 Build 0)  -->
<svg version="1.1" id="Layer_1" xmlns="http://www.w3.org/2000/svg" xmlns:xlink="http://www.w3.org/1999/xlink" x="0px" y="0px"
	 viewBox="0 0 512 512" enable-background="new 0 0 512 512" xml:space="preserve">
<g>
	<path fill="#D61D46" d="M239.3,155.8c0.1,0,0.1,0,0.2,0V53.2c-0.1,0-0.1,0-0.2,0c-30,0-58.5,6.2-84.4,17.3l40.2,94.4
		C208.7,159.1,223.6,155.8,239.3,155.8z"/>
	<path fill="#E4345B" d="M154.9,70.5c-25.2,10.8-47.9,26.3-67,45.3l72.5,72.5c9.9-9.8,21.7-17.8,34.7-23.4L154.9,70.5z"/>
	<path fill="#9753A0" d="M41.5,184.6c-10.6,25.1-16.6,52.6-16.8,81.4h102.6c0.2-15,3.5-29.4,9.1-42.4L41.5,184.6z"/>
	<path fill="#8F4B9C" d="M160.5,188.4l-72.5-72.5c-19.6,19.6-35.5,42.9-46.5,68.8l94.9,39C142.1,210.3,150.3,198.4,160.5,188.4z"/>
	<path fill="#3D56A5" d="M127.2,267.9c0-0.6,0-1.3,0-1.9H24.6c0,0.6,0,1.3,0,1.9c0,29.3,5.9,57.2,16.5,82.6l94.9-38.9
		C130.4,298.2,127.2,283.4,127.2,267.9z"/>
	<path fill="#4961AC" d="M136.1,311.6l-94.9,38.9c11.6,27.8,29,52.7,50.6,73.2l72.6-72.6C152.2,340.2,142.5,326.8,136.1,311.6z"/>
	<path fill="#52BFA4" d="M164.3,351.1l-72.6,72.6c19.3,18.3,42.1,33.1,67.1,43.3l39-94.9C185.4,367.1,174.1,359.9,164.3,351.1z"/>
	<path fill="#66C4AE" d="M197.9,372l-39,94.9c24.9,10.1,52,15.7,80.5,15.7c0.1,0,0.1,0,0.2,0V380c-0.1,0-0.1,0-0.2,0
		C224.7,380,210.7,377.2,197.9,372z"/>
	<path fill="#B2D23D" d="M454,267.9c0-0.6,0-1.3,0-1.9H351.4c0,0.6,0.1,1.3,0.1,1.9c0,14.4-2.8,28.1-7.7,40.8l95,39
		C448.6,323,454,296.1,454,267.9z"/>
	<path fill="#A3CD39" d="M343.7,308.7c-5.6,14.4-14.1,27.3-24.8,38.1l72.5,72.5c20.2-20.3,36.4-44.6,47.2-71.6L343.7,308.7z"/>
	<path fill="#60BA46" d="M239.5,482.6c29.7,0,58-6.1,83.7-17.1L283,371.1c-13.4,5.7-28,8.8-43.5,8.9V482.6z"/>
	<path fill="#74BF44" d="M391.4,419.3l-72.5-72.5c-10.2,10.3-22.4,18.6-35.9,24.3l40.2,94.4C348.9,454.6,372,438.8,391.4,419.3z"/>
	<path fill="#E46733" d="M239.5,53.2v102.6c15.4,0,30.2,3.2,43.5,8.9l39-94.9C296.7,59.2,268.8,53.2,239.5,53.2z"/>
	<path fill="#D65327" d="M322.1,69.8l-39,94.9c15.1,6.4,28.6,16.1,39.4,28.2l72.6-72.6C374.7,98.8,349.8,81.5,322.1,69.8z"/>
	<path fill="#E3BD32" d="M395.1,120.3l-72.6,72.6c8.8,9.8,16,21.2,20.9,33.6l95-39C428.2,162.5,413.4,139.7,395.1,120.3z"/>
	<path fill="#D7B029" d="M343.4,226.5c4.9,12.3,7.7,25.6,7.9,39.5H454c-0.2-27.7-5.8-54.2-15.6-78.5L343.4,226.5z"/>
</g>
<path d="M476,117.4c21.4-21.4,23.8-55.7,5.5-78.2c-10.9-13.4-27.1-21.1-44.4-21.1c-15.3,0-29.7,5.9-40.5,16.7L363,68.5
	c-10.7,10.7-29.3,10.7-39.9,0l-5.6-5.6c-8-8-21.9-8-29.9,0l-37.5,37.5c-4.4,4.4-6.6,10.5-6.1,16.8c0.4,5.1,2.8,9.8,6.4,13.5
	l18.4,18.4c0,0,0,0.1,0,0.1L123.3,294.7l-9.5,9.5c-14.9,14.9-26,33.4-32.4,54.2c-2.5,8.1-5.9,15.8-10.2,23.1
	c-0.3,0.5-0.5,0.9-0.7,1.4c-0.2,0.3-0.5,0.7-0.7,1c-2.1,3.5-4.4,6.8-6.9,10.1c-2.8,3.5-5.7,6.9-8.9,10.1l-31.4,31.4
	c-5.9,5.9-5.9,15.4,0,21.3l32.6,32.6c5.9,5.9,15.4,5.9,21.3,0l31.1-31.1c12.9-12.9,29-22.5,46.4-27.6c12.3-3.7,23.9-9.3,34.5-16.4
	c7.1-4.7,13.9-10,20-16.1l103.6-103.6l51.1-51.1c0,0,0.1,0,0.1,0l18.7,18.7c3.9,3.9,9.1,6.1,14.6,6.2c5.9,0.1,11.5-2.4,15.7-6.6
	l37.2-37.2c8.2-8.2,8.2-21.7,0-29.9l-5.5-5.5c-5.3-5.3-8.3-12.4-8.3-20s2.9-14.6,8.3-20L476,117.4L476,117.4z M349.8,230.1
	l-64.6,64.6c0,0,0,0-0.1,0H150.5c-0.1,0-0.1-0.1-0.1-0.2l131.9-131.9c0,0,0.1,0,0.1,0l67.3,67.3C349.8,230,349.8,230.1,349.8,230.1
	L349.8,230.1z"/>
</svg>
